<svg width="140" height="96" viewBox="0 0 140 96" fill="none" xmlns="http://www.w3.org/2000/svg">
<path d="M140 82.4018C140 82.4018 137.854 81.5844 134.142 80.0567C132.306 79.2152 129.981 78.5564 127.39 77.6103C124.819 76.6271 121.805 75.8428 118.564 74.8796C117.755 74.6439 116.928 74.3993 116.084 74.1565C115.228 73.9606 114.356 73.762 113.47 73.5605C111.705 73.1418 109.879 72.7104 108.003 72.2644C106.124 71.8486 104.164 71.5699 102.182 71.2013C100.192 70.8669 98.1772 70.4311 96.09 70.2296C94.0161 69.9667 91.9073 69.6936 89.7723 69.4208C87.6343 69.1977 85.4581 69.0949 83.2734 68.9019C82.1817 68.8177 81.0858 68.7319 79.9838 68.6447C78.8834 68.5919 77.7757 68.5934 76.6665 68.5563C74.4512 68.4977 72.2256 68.439 70 68.3833C67.7669 68.442 65.5326 68.4991 63.3083 68.559C62.1876 68.5949 61.0595 68.6005 59.9546 68.652C58.8616 68.7392 57.7729 68.8235 56.6899 68.9107C54.5167 69.1008 52.3612 69.2063 50.2274 69.4264C48.0939 69.6995 45.9863 69.9723 43.9112 70.2381C41.8241 70.4352 39.8085 70.8754 37.8224 71.2128C35.8376 71.5785 33.879 71.8572 31.9977 72.2729C30.1224 72.7175 28.2967 73.1504 26.5306 73.5678C25.645 73.7706 24.7751 73.9692 23.9184 74.1621C23.0749 74.4079 22.2474 74.6495 21.4388 74.8881C18.1973 75.8484 15.1852 76.633 12.6018 77.6174C10.0043 78.565 7.67341 79.2308 5.85198 80.0626C2.15498 81.5815 0 82.4018 0 82.4018C0 82.4018 1.96388 81.1613 5.47576 79.0765C7.20788 77.9689 9.43347 76.9374 11.9657 75.6813C12.6033 75.3711 13.2572 75.0496 13.9345 74.7181C14.2716 74.5523 14.6159 74.3866 14.9619 74.2137C15.3151 74.0664 15.6756 73.9179 16.0389 73.7664C17.507 73.1804 19.0453 72.5631 20.6537 71.9187C21.4593 71.5985 22.2823 71.2714 23.12 70.9384C23.9725 70.6539 24.8407 70.3681 25.7223 70.0766C27.4969 69.5151 29.3327 68.9378 31.2198 68.3433C33.1171 67.7861 35.0917 67.3586 37.1015 66.8415C39.111 66.337 41.1702 65.8282 43.2895 65.5082C45.4056 65.1482 47.5583 64.7822 49.7372 64.4136C51.9276 64.0978 54.1709 63.9219 56.4242 63.6876C57.5508 63.5748 58.6835 63.4619 59.8173 63.3532C60.944 63.2675 62.0606 63.2589 63.1828 63.2133C65.4493 63.1402 67.7245 63.066 70 62.9902C72.2825 63.0674 74.5664 63.1417 76.8417 63.2159C77.977 63.2589 79.1139 63.2746 80.2435 63.3603C81.3689 63.4719 82.4956 63.5819 83.6135 63.6933C85.8508 63.9278 88.0778 64.1063 90.264 64.4192C92.4414 64.7879 94.5942 65.1552 96.7103 65.5153C98.8296 65.8341 100.886 66.3471 102.898 66.85C104.907 67.3674 106.883 67.7917 108.78 68.3491C110.664 68.9449 112.5 69.5236 114.276 70.0852C115.159 70.3754 116.027 70.6627 116.88 70.9441C117.717 71.2785 118.54 71.6058 119.346 71.9243C120.953 72.5687 122.493 73.1863 123.956 73.775C124.323 73.925 124.683 74.0735 125.038 74.2208C125.384 74.3923 125.73 74.5593 126.068 74.7252C126.747 75.0567 127.404 75.3796 128.041 75.6925C130.582 76.9488 132.814 77.9848 134.53 79.0835C138.024 81.1587 140 82.4018 140 82.4018Z" fill="#0D2512"/>
<path d="M76.9356 52.4343H83.0129V46.4838H76.9356V52.4343ZM76.9356 43.0742H83.0129V37.1239H76.9356V43.0742ZM66.8381 43.0742H72.9151V37.1239H66.8381V43.0742ZM56.7402 43.0742H62.8172V37.1239H56.7402V43.0742ZM69.9992 5.12147V15.1245L27.0684 45.6093L69.9992 5.12147ZM138.026 65.7339L112.053 40.682V14.9872L99.5423 2.73808V28.6143L74.7422 4.6913L69.8764 0L65.0121 4.6913L1.72656 65.7339L69.8764 19.4929L138.026 65.7339ZM66.8381 52.4343H72.9151V46.4838H66.8381V52.4343ZM56.7402 52.4343H62.8172V46.4838H56.7402V52.4343Z" fill="#111111"/>
<mask id="mask0_1803_189" style="mask-type:luminance" maskUnits="userSpaceOnUse" x="0" y="82" width="140" height="14">
<path d="M139.707 82.3203H0V95.9997H139.707V82.3203Z" fill="white"/>
</mask>
<g mask="url(#mask0_1803_189)">
<path d="M42.6445 87.9551C42.6602 87.8379 42.6562 87.7363 42.6328 87.6504C42.6094 87.5645 42.569 87.4889 42.5117 87.4238C42.457 87.3561 42.3893 87.2962 42.3086 87.2441C42.2305 87.1895 42.1406 87.1387 42.0391 87.0918C41.8542 87.0033 41.6797 86.9043 41.5156 86.7949C41.3542 86.6829 41.2109 86.5579 41.0859 86.4199C40.9635 86.2793 40.8711 86.1204 40.8086 85.9434C40.7461 85.7663 40.7227 85.5658 40.7383 85.3418C40.7565 85.0866 40.8216 84.8574 40.9336 84.6543C41.0456 84.4512 41.1914 84.2793 41.3711 84.1387C41.5508 83.9954 41.7526 83.8887 41.9766 83.8184C42.2031 83.7454 42.4375 83.7116 42.6797 83.7168C43.0234 83.7246 43.3099 83.8066 43.5391 83.9629C43.7708 84.1191 43.9427 84.3288 44.0547 84.5918C44.1693 84.8548 44.2201 85.1491 44.207 85.4746L43.0938 85.4707C43.1042 85.3431 43.0977 85.2168 43.0742 85.0918C43.0534 84.9642 43.0052 84.86 42.9297 84.7793C42.8542 84.696 42.7357 84.653 42.5742 84.6504C42.4388 84.6478 42.319 84.6777 42.2148 84.7402C42.1107 84.8027 42.026 84.8861 41.9609 84.9902C41.8958 85.0944 41.8542 85.2116 41.8359 85.3418C41.8229 85.4434 41.8333 85.5345 41.8672 85.6152C41.9036 85.696 41.9531 85.7689 42.0156 85.834C42.0807 85.8965 42.1536 85.9538 42.2344 86.0059C42.3151 86.0553 42.3958 86.0983 42.4766 86.1348C42.6745 86.2311 42.8555 86.3353 43.0195 86.4473C43.1836 86.5566 43.3229 86.6829 43.4375 86.8262C43.5547 86.9668 43.6393 87.1296 43.6914 87.3145C43.7461 87.4993 43.7656 87.7103 43.75 87.9473C43.7292 88.2103 43.6654 88.4421 43.5586 88.6426C43.4544 88.8431 43.3164 89.0137 43.1445 89.1543C42.9727 89.2923 42.776 89.3965 42.5547 89.4668C42.3359 89.5371 42.099 89.5697 41.8438 89.5645C41.5729 89.5566 41.3307 89.5059 41.1172 89.4121C40.9036 89.3158 40.724 89.1829 40.5781 89.0137C40.4349 88.8444 40.3281 88.6465 40.2578 88.4199C40.1875 88.1934 40.1589 87.9486 40.1719 87.6855L41.2891 87.6895C41.2812 87.8118 41.2826 87.9303 41.293 88.0449C41.306 88.1595 41.3346 88.2611 41.3789 88.3496C41.4258 88.4355 41.4935 88.5046 41.582 88.5566C41.6706 88.6061 41.7878 88.6309 41.9336 88.6309C42.0716 88.6309 42.1901 88.6022 42.2891 88.5449C42.388 88.4876 42.4674 88.4082 42.5273 88.3066C42.5872 88.2051 42.6263 88.0879 42.6445 87.9551ZM45.2148 83.7949L46.9297 83.7988C47.2708 83.8092 47.5573 83.8835 47.7891 84.0215C48.0234 84.1569 48.1966 84.3496 48.3086 84.5996C48.4232 84.847 48.4661 85.1413 48.4375 85.4824C48.4115 85.7663 48.3503 86.015 48.2539 86.2285C48.1576 86.4421 48.0221 86.627 47.8477 86.7832C47.6732 86.9395 47.4596 87.0762 47.207 87.1934L46.8242 87.3965H45.3359L45.5 86.4473L46.4453 86.459C46.6198 86.4538 46.7682 86.4121 46.8906 86.334C47.013 86.2559 47.1094 86.1504 47.1797 86.0176C47.2526 85.8848 47.2995 85.7376 47.3203 85.5762C47.3359 85.4538 47.3372 85.3301 47.3242 85.2051C47.3138 85.0801 47.2747 84.9746 47.207 84.8887C47.1393 84.8027 47.0312 84.7559 46.8828 84.748L46.168 84.7441L45.3477 89.4824H44.2305L45.2148 83.7949ZM46.7578 89.4824L46.1797 86.9473L47.3047 86.9434L47.9492 89.4199V89.4824H46.7578ZM50.668 83.7949L49.6797 89.4824H48.5664L49.5547 83.7949H50.668ZM54.7852 87.002H53.6094L53.75 86.1738L54.6641 86.1816C54.8177 86.179 54.9518 86.1491 55.0664 86.0918C55.1836 86.0319 55.2773 85.9473 55.3477 85.8379C55.4206 85.7285 55.4674 85.597 55.4883 85.4434C55.5065 85.3105 55.5065 85.1947 55.4883 85.0957C55.4701 84.9941 55.4245 84.9121 55.3516 84.8496C55.2786 84.7871 55.1706 84.7533 55.0273 84.748L54.3828 84.7441L53.5625 89.4824H52.4453L53.4297 83.7949L55.0742 83.7988C55.3138 83.804 55.5312 83.8392 55.7266 83.9043C55.9245 83.9668 56.0938 84.0618 56.2344 84.1895C56.375 84.3171 56.4792 84.4746 56.5469 84.6621C56.6172 84.8496 56.6445 85.071 56.6289 85.3262C56.6081 85.61 56.5299 85.8522 56.3945 86.0527C56.2617 86.2507 56.0846 86.4043 55.8633 86.5137C55.6445 86.6204 55.3971 86.6816 55.1211 86.6973L54.7852 87.002ZM54.3281 89.4824H52.8438L53.4375 88.541L54.3789 88.5449C54.5352 88.5397 54.668 88.5033 54.7773 88.4355C54.8893 88.3678 54.9779 88.2767 55.043 88.1621C55.1107 88.0475 55.1536 87.916 55.1719 87.7676C55.1875 87.6556 55.1914 87.5436 55.1836 87.4316C55.1784 87.3171 55.1471 87.2207 55.0898 87.1426C55.0326 87.0618 54.9349 87.0163 54.7969 87.0059L53.7852 87.002L53.9375 86.1738L55.0664 86.1777L55.2578 86.502C55.5052 86.5124 55.7057 86.5749 55.8594 86.6895C56.0156 86.8014 56.1276 86.9512 56.1953 87.1387C56.263 87.3262 56.2878 87.5397 56.2695 87.7793C56.2461 88.1491 56.1484 88.4616 55.9766 88.7168C55.8073 88.9694 55.5807 89.1621 55.2969 89.2949C55.013 89.4251 54.6901 89.4876 54.3281 89.4824ZM59.6094 84.8652L57.6367 89.4824H56.4258L59.1328 83.7949H59.8984L59.6094 84.8652ZM59.7578 89.4824L59.3633 84.7715L59.4258 83.7949H60.1523L60.8984 89.4824H59.7578ZM60.1562 87.3613L59.9883 88.3105H57.4883L57.6562 87.3613H60.1562ZM64.6719 88.5371L64.5039 89.4824H62.207L62.3711 88.5371H64.6719ZM63.5391 83.7949L62.5547 89.4824H61.4375L62.4219 83.7949H63.5391ZM68.0391 84.8652L66.0664 89.4824H64.8555L67.5625 83.7949H68.3281L68.0391 84.8652ZM68.1875 89.4824L67.793 84.7715L67.8555 83.7949H68.582L69.3281 89.4824H68.1875ZM68.5859 87.3613L68.418 88.3105H65.918L66.0859 87.3613H68.5859ZM72 87.7363L72.668 83.7949H73.7812L73.1133 87.7285C73.0664 88.054 72.9648 88.3587 72.8086 88.6426C72.6549 88.9264 72.4479 89.153 72.1875 89.3223C71.9271 89.4889 71.6185 89.5697 71.2617 89.5645C70.918 89.5566 70.6406 89.472 70.4297 89.3105C70.2188 89.1491 70.069 88.9368 69.9805 88.6738C69.8919 88.4082 69.8581 88.1152 69.8789 87.7949L71 87.8027C70.9922 87.9017 70.9896 88.0137 70.9922 88.1387C70.9974 88.2637 71.026 88.3743 71.0781 88.4707C71.1328 88.5645 71.2292 88.6139 71.3672 88.6191C71.5182 88.6217 71.6367 88.5736 71.7227 88.4746C71.8086 88.3757 71.8724 88.2559 71.9141 88.1152C71.9557 87.9746 71.9844 87.8483 72 87.7363ZM75.8242 83.7949L74.8359 89.4824H73.7227L74.7109 83.7949H75.8242ZM81.2539 86.0996L81.0859 87.0449H78.8164L78.9805 86.0996H81.2539ZM79.7031 83.7949L78.7188 89.4824H77.6016L78.5859 83.7949H79.7031ZM82.457 83.7949L81.4688 89.4824H80.3633L81.3516 83.7949H82.457ZM86.8047 86.1973L86.668 87.1426C86.6185 87.4603 86.5352 87.7663 86.418 88.0605C86.3008 88.3548 86.1471 88.6165 85.957 88.8457C85.7695 89.0723 85.5404 89.2507 85.2695 89.3809C84.9987 89.5085 84.6836 89.5684 84.3242 89.5605C83.9857 89.5527 83.7018 89.4798 83.4727 89.3418C83.2461 89.2038 83.069 89.0202 82.9414 88.791C82.8164 88.5618 82.7344 88.3053 82.6953 88.0215C82.6562 87.735 82.6549 87.4434 82.6914 87.1465L82.832 86.2012C82.8815 85.8783 82.9635 85.5684 83.0781 85.2715C83.1927 84.972 83.3451 84.7038 83.5352 84.4668C83.7279 84.2298 83.9609 84.0436 84.2344 83.9082C84.5078 83.7702 84.8255 83.7064 85.1875 83.7168C85.5339 83.7246 85.8203 83.8014 86.0469 83.9473C86.2734 84.0931 86.4492 84.2858 86.5742 84.5254C86.6992 84.7624 86.7786 85.0267 86.8125 85.3184C86.8464 85.6074 86.8438 85.9004 86.8047 86.1973ZM85.5547 87.1465L85.6953 86.1816C85.7109 86.0488 85.724 85.8978 85.7344 85.7285C85.7448 85.5592 85.7357 85.3952 85.707 85.2363C85.6784 85.0775 85.6185 84.9447 85.5273 84.8379C85.4362 84.7311 85.2943 84.6738 85.1016 84.666C84.8958 84.6556 84.7227 84.6973 84.582 84.791C84.444 84.8848 84.332 85.0111 84.2461 85.1699C84.1602 85.3262 84.0938 85.4941 84.0469 85.6738C84.0026 85.8535 83.9674 86.0254 83.9414 86.1895L83.8086 87.1504C83.7904 87.2858 83.7773 87.4355 83.7695 87.5996C83.7617 87.7637 83.7734 87.9225 83.8047 88.0762C83.8385 88.2272 83.901 88.3535 83.9922 88.4551C84.0859 88.554 84.2279 88.6074 84.418 88.6152C84.6185 88.6257 84.7865 88.5853 84.9219 88.4941C85.0573 88.403 85.168 88.2845 85.2539 88.1387C85.3424 87.9902 85.4089 87.8288 85.4531 87.6543C85.5 87.4772 85.5339 87.3079 85.5547 87.1465ZM88.5586 83.7949H89.4727L89.8086 87.8965L91.5664 83.7949H92.5391L89.9453 89.4824H89.1836L88.5586 83.7949ZM88.0391 83.7949H88.9766L88.4297 87.9824L88.168 89.4824H87.0547L88.0391 83.7949ZM92.0898 83.7949H93.0312L92.043 89.4824H90.9258L91.2109 87.8809L92.0898 83.7949ZM96.2734 88.5371L96.1055 89.4824H93.707L93.8672 88.5371H96.2734ZM95.0391 83.7949L94.0547 89.4824H92.9375L93.9219 83.7949H95.0391ZM96.3789 86.0996L96.2148 87.0176H94.1328L94.293 86.0996H96.3789ZM97.082 83.7949L96.918 84.7441H94.5234L94.6914 83.7949H97.082ZM99.3555 87.9551C99.3711 87.8379 99.3672 87.7363 99.3438 87.6504C99.3203 87.5645 99.2799 87.4889 99.2227 87.4238C99.168 87.3561 99.1003 87.2962 99.0195 87.2441C98.9414 87.1895 98.8516 87.1387 98.75 87.0918C98.5651 87.0033 98.3906 86.9043 98.2266 86.7949C98.0651 86.6829 97.9219 86.5579 97.7969 86.4199C97.6745 86.2793 97.582 86.1204 97.5195 85.9434C97.457 85.7663 97.4336 85.5658 97.4492 85.3418C97.4674 85.0866 97.5326 84.8574 97.6445 84.6543C97.7565 84.4512 97.9023 84.2793 98.082 84.1387C98.2617 83.9954 98.4635 83.8887 98.6875 83.8184C98.9141 83.7454 99.1484 83.7116 99.3906 83.7168C99.7344 83.7246 100.021 83.8066 100.25 83.9629C100.482 84.1191 100.654 84.3288 100.766 84.5918C100.88 84.8548 100.931 85.1491 100.918 85.4746L99.8047 85.4707C99.8151 85.3431 99.8086 85.2168 99.7852 85.0918C99.7643 84.9642 99.7161 84.86 99.6406 84.7793C99.5651 84.696 99.4466 84.653 99.2852 84.6504C99.1497 84.6478 99.0299 84.6777 98.9258 84.7402C98.8216 84.8027 98.737 84.8861 98.6719 84.9902C98.6068 85.0944 98.5651 85.2116 98.5469 85.3418C98.5339 85.4434 98.5443 85.5345 98.5781 85.6152C98.6146 85.696 98.6641 85.7689 98.7266 85.834C98.7917 85.8965 98.8646 85.9538 98.9453 86.0059C99.026 86.0553 99.1068 86.0983 99.1875 86.1348C99.3854 86.2311 99.5664 86.3353 99.7305 86.4473C99.8945 86.5566 100.034 86.6829 100.148 86.8262C100.266 86.9668 100.35 87.1296 100.402 87.3145C100.457 87.4993 100.477 87.7103 100.461 87.9473C100.44 88.2103 100.376 88.4421 100.27 88.6426C100.165 88.8431 100.027 89.0137 99.8555 89.1543C99.6836 89.2923 99.487 89.3965 99.2656 89.4668C99.0469 89.5371 98.8099 89.5697 98.5547 89.5645C98.2839 89.5566 98.0417 89.5059 97.8281 89.4121C97.6146 89.3158 97.4349 89.1829 97.2891 89.0137C97.1458 88.8444 97.0391 88.6465 96.9688 88.4199C96.8984 88.1934 96.8698 87.9486 96.8828 87.6855L98 87.6895C97.9922 87.8118 97.9935 87.9303 98.0039 88.0449C98.0169 88.1595 98.0456 88.2611 98.0898 88.3496C98.1367 88.4355 98.2044 88.5046 98.293 88.5566C98.3815 88.6061 98.4987 88.6309 98.6445 88.6309C98.7826 88.6309 98.901 88.6022 99 88.5449C99.099 88.4876 99.1784 88.4082 99.2383 88.3066C99.2982 88.2051 99.3372 88.0879 99.3555 87.9551Z" fill="#111111"/>
</g>
</svg>
