<svg width="77" height="53" viewBox="0 0 77 53" fill="none" xmlns="http://www.w3.org/2000/svg">
<g clip-path="url(#clip0_1803_325)">
<path d="M77 45.4922C77 45.4922 75.82 45.0409 73.778 44.1975C72.7682 43.7329 71.4895 43.3692 70.0647 42.8469C68.6505 42.3041 66.9928 41.8711 65.2102 41.3393C64.7655 41.2092 64.3103 41.0742 63.8464 40.9401C63.3752 40.832 62.8959 40.7223 62.4087 40.6111C61.4375 40.3799 60.4334 40.1417 59.4018 39.8955C58.3681 39.666 57.29 39.5121 56.2 39.3086C55.1059 39.124 53.9974 38.8834 52.8495 38.7721C51.7089 38.627 50.549 38.4762 49.3748 38.3256C48.1989 38.2025 47.0019 38.1457 45.8004 38.0391C45.1999 37.9926 44.5972 37.9453 43.9911 37.8971C43.3859 37.868 42.7766 37.8688 42.1666 37.8483C40.9481 37.8159 39.7241 37.7836 38.5 37.7528C37.2718 37.7852 36.0429 37.8168 34.8196 37.8498C34.2032 37.8696 33.5827 37.8727 32.975 37.9012C32.3739 37.9493 31.7751 37.9958 31.1794 38.044C29.9842 38.1489 28.7987 38.2072 27.6251 38.3287C26.4517 38.4795 25.2925 38.6301 24.1512 38.7768C23.0032 38.8857 21.8947 39.1287 20.8023 39.3149C19.7107 39.5168 18.6334 39.6707 17.5987 39.9002C16.5673 40.1457 15.5632 40.3846 14.5918 40.6151C14.1047 40.727 13.6263 40.8367 13.1551 40.9432C12.6912 41.0789 12.236 41.2123 11.7913 41.344C10.0085 41.8742 8.35184 42.3073 6.93101 42.8508C5.50235 43.3739 4.22038 43.7416 3.21859 44.2008C1.18524 45.0393 0 45.4922 0 45.4922C0 45.4922 1.08013 44.8074 3.01167 43.6563C3.96434 43.0449 5.18841 42.4754 6.58111 41.7819C6.93183 41.6106 7.29146 41.4332 7.66399 41.2502C7.84937 41.1586 8.03872 41.0672 8.22903 40.9717C8.42333 40.8904 8.6216 40.8084 8.82138 40.7247C9.62887 40.4012 10.4749 40.0604 11.3595 39.7047C11.8026 39.5279 12.2553 39.3473 12.716 39.1635C13.1849 39.0064 13.6624 38.8486 14.1473 38.6877C15.1233 38.3776 16.133 38.059 17.1709 37.7307C18.2144 37.4231 19.3004 37.1871 20.4058 36.9016C21.5111 36.6231 22.6436 36.3422 23.8092 36.1655C24.9731 35.9667 26.1571 35.7647 27.3555 35.5612C28.5602 35.3868 29.794 35.2897 31.0333 35.1604C31.653 35.0981 32.2759 35.0358 32.8995 34.9758C33.5192 34.9285 34.1334 34.9237 34.7505 34.8985C35.9971 34.8582 37.2485 34.8172 38.5 34.7754C39.7554 34.818 41.0115 34.859 42.2629 34.9C42.8874 34.9237 43.5126 34.9324 44.1339 34.9797C44.7529 35.0413 45.3726 35.102 45.9874 35.1635C47.2179 35.293 48.4428 35.3916 49.6452 35.5643C50.8428 35.7678 52.0268 35.9707 53.1906 36.1694C54.3563 36.3454 55.4872 36.6286 56.594 36.9063C57.6986 37.1919 58.7855 37.4262 59.829 37.734C60.8652 38.0629 61.8749 38.3824 62.8519 38.6924C63.3375 38.8526 63.815 39.0112 64.2838 39.1666C64.7446 39.3512 65.1973 39.5319 65.6403 39.7078C66.5241 40.0635 67.371 40.4044 68.176 40.7295C68.3776 40.8123 68.5758 40.8943 68.7708 40.9756C68.9611 41.0703 69.1513 41.1625 69.3375 41.2541C69.7107 41.4371 70.072 41.6154 70.4227 41.7881C71.8202 42.4817 73.0476 43.0536 73.9915 43.6602C75.9131 44.8059 77 45.4922 77 45.4922Z" fill="white"/>
<path d="M42.3181 28.9481H45.6606V25.6629H42.3181V28.9481ZM42.3181 23.7805H45.6606V20.4955H42.3181V23.7805ZM36.7645 23.7805H40.1068V20.4955H36.7645V23.7805ZM31.2106 23.7805H34.553V20.4955H31.2106V23.7805ZM38.5031 2.82748V8.34999L14.8912 25.1801L38.5031 2.82748ZM75.9179 36.2906L61.6324 22.4599V8.2742L54.7518 1.51165V15.7975L41.1117 2.58999L38.4356 0L35.7602 2.58999L0.953125 36.2906L38.4356 10.7617L75.9179 36.2906ZM36.7645 28.9481H40.1068V25.6629H36.7645V28.9481ZM31.2106 28.9481H34.553V25.6629H31.2106V28.9481Z" fill="white"/>
<mask id="mask0_1803_325" style="mask-type:luminance" maskUnits="userSpaceOnUse" x="0" y="45" width="77" height="8">
<path d="M76.8389 45.4482H0V53.0004H76.8389V45.4482Z" fill="white"/>
</mask>
<g mask="url(#mask0_1803_325)">
<path d="M11.6445 51.0107C11.6602 50.8936 11.6562 50.792 11.6328 50.7061C11.6094 50.6201 11.569 50.5446 11.5117 50.4795C11.457 50.4118 11.3893 50.3519 11.3086 50.2998C11.2305 50.2451 11.1406 50.1943 11.0391 50.1475C10.8542 50.0589 10.6797 49.96 10.5156 49.8506C10.3542 49.7386 10.2109 49.6136 10.0859 49.4756C9.96354 49.335 9.87109 49.1761 9.80859 48.999C9.74609 48.8219 9.72266 48.6214 9.73828 48.3975C9.75651 48.1423 9.82161 47.9131 9.93359 47.71C10.0456 47.5068 10.1914 47.335 10.3711 47.1943C10.5508 47.0511 10.7526 46.9443 10.9766 46.874C11.2031 46.8011 11.4375 46.7673 11.6797 46.7725C12.0234 46.7803 12.3099 46.8623 12.5391 47.0186C12.7708 47.1748 12.9427 47.3844 13.0547 47.6475C13.1693 47.9105 13.2201 48.2048 13.207 48.5303L12.0938 48.5264C12.1042 48.3988 12.0977 48.2725 12.0742 48.1475C12.0534 48.0199 12.0052 47.9157 11.9297 47.835C11.8542 47.7516 11.7357 47.7087 11.5742 47.7061C11.4388 47.7035 11.319 47.7334 11.2148 47.7959C11.1107 47.8584 11.026 47.9417 10.9609 48.0459C10.8958 48.1501 10.8542 48.2673 10.8359 48.3975C10.8229 48.499 10.8333 48.5902 10.8672 48.6709C10.9036 48.7516 10.9531 48.8245 11.0156 48.8896C11.0807 48.9521 11.1536 49.0094 11.2344 49.0615C11.3151 49.111 11.3958 49.154 11.4766 49.1904C11.6745 49.2868 11.8555 49.391 12.0195 49.5029C12.1836 49.6123 12.3229 49.7386 12.4375 49.8818C12.5547 50.0225 12.6393 50.1852 12.6914 50.3701C12.7461 50.555 12.7656 50.766 12.75 51.0029C12.7292 51.266 12.6654 51.4977 12.5586 51.6982C12.4544 51.8988 12.3164 52.0693 12.1445 52.21C11.9727 52.348 11.776 52.4521 11.5547 52.5225C11.3359 52.5928 11.099 52.6253 10.8438 52.6201C10.5729 52.6123 10.3307 52.5615 10.1172 52.4678C9.90365 52.3714 9.72396 52.2386 9.57812 52.0693C9.4349 51.9001 9.32812 51.7021 9.25781 51.4756C9.1875 51.249 9.15885 51.0042 9.17188 50.7412L10.2891 50.7451C10.2812 50.8675 10.2826 50.986 10.293 51.1006C10.306 51.2152 10.3346 51.3167 10.3789 51.4053C10.4258 51.4912 10.4935 51.5602 10.582 51.6123C10.6706 51.6618 10.7878 51.6865 10.9336 51.6865C11.0716 51.6865 11.1901 51.6579 11.2891 51.6006C11.388 51.5433 11.4674 51.4639 11.5273 51.3623C11.5872 51.2607 11.6263 51.1436 11.6445 51.0107ZM14.2148 46.8506L15.9297 46.8545C16.2708 46.8649 16.5573 46.9391 16.7891 47.0771C17.0234 47.2126 17.1966 47.4053 17.3086 47.6553C17.4232 47.9027 17.4661 48.1969 17.4375 48.5381C17.4115 48.8219 17.3503 49.0706 17.2539 49.2842C17.1576 49.4977 17.0221 49.6826 16.8477 49.8389C16.6732 49.9951 16.4596 50.1318 16.207 50.249L15.8242 50.4521H14.3359L14.5 49.5029L15.4453 49.5146C15.6198 49.5094 15.7682 49.4678 15.8906 49.3896C16.013 49.3115 16.1094 49.2061 16.1797 49.0732C16.2526 48.9404 16.2995 48.7933 16.3203 48.6318C16.3359 48.5094 16.3372 48.3857 16.3242 48.2607C16.3138 48.1357 16.2747 48.0303 16.207 47.9443C16.1393 47.8584 16.0312 47.8115 15.8828 47.8037L15.168 47.7998L14.3477 52.5381H13.2305L14.2148 46.8506ZM15.7578 52.5381L15.1797 50.0029L16.3047 49.999L16.9492 52.4756V52.5381H15.7578ZM19.668 46.8506L18.6797 52.5381H17.5664L18.5547 46.8506H19.668ZM23.7852 50.0576H22.6094L22.75 49.2295L23.6641 49.2373C23.8177 49.2347 23.9518 49.2048 24.0664 49.1475C24.1836 49.0876 24.2773 49.0029 24.3477 48.8936C24.4206 48.7842 24.4674 48.6527 24.4883 48.499C24.5065 48.3662 24.5065 48.2503 24.4883 48.1514C24.4701 48.0498 24.4245 47.9678 24.3516 47.9053C24.2786 47.8428 24.1706 47.8089 24.0273 47.8037L23.3828 47.7998L22.5625 52.5381H21.4453L22.4297 46.8506L24.0742 46.8545C24.3138 46.8597 24.5312 46.8949 24.7266 46.96C24.9245 47.0225 25.0938 47.1175 25.2344 47.2451C25.375 47.3727 25.4792 47.5303 25.5469 47.7178C25.6172 47.9053 25.6445 48.1266 25.6289 48.3818C25.6081 48.6657 25.5299 48.9079 25.3945 49.1084C25.2617 49.3063 25.0846 49.46 24.8633 49.5693C24.6445 49.6761 24.3971 49.7373 24.1211 49.7529L23.7852 50.0576ZM23.3281 52.5381H21.8438L22.4375 51.5967L23.3789 51.6006C23.5352 51.5954 23.668 51.5589 23.7773 51.4912C23.8893 51.4235 23.9779 51.3324 24.043 51.2178C24.1107 51.1032 24.1536 50.9717 24.1719 50.8232C24.1875 50.7113 24.1914 50.5993 24.1836 50.4873C24.1784 50.3727 24.1471 50.2764 24.0898 50.1982C24.0326 50.1175 23.9349 50.0719 23.7969 50.0615L22.7852 50.0576L22.9375 49.2295L24.0664 49.2334L24.2578 49.5576C24.5052 49.568 24.7057 49.6305 24.8594 49.7451C25.0156 49.8571 25.1276 50.0068 25.1953 50.1943C25.263 50.3818 25.2878 50.5954 25.2695 50.835C25.2461 51.2048 25.1484 51.5173 24.9766 51.7725C24.8073 52.0251 24.5807 52.2178 24.2969 52.3506C24.013 52.4808 23.6901 52.5433 23.3281 52.5381ZM28.6094 47.9209L26.6367 52.5381H25.4258L28.1328 46.8506H28.8984L28.6094 47.9209ZM28.7578 52.5381L28.3633 47.8271L28.4258 46.8506H29.1523L29.8984 52.5381H28.7578ZM29.1562 50.417L28.9883 51.3662H26.4883L26.6562 50.417H29.1562ZM33.6719 51.5928L33.5039 52.5381H31.207L31.3711 51.5928H33.6719ZM32.5391 46.8506L31.5547 52.5381H30.4375L31.4219 46.8506H32.5391ZM37.0391 47.9209L35.0664 52.5381H33.8555L36.5625 46.8506H37.3281L37.0391 47.9209ZM37.1875 52.5381L36.793 47.8271L36.8555 46.8506H37.582L38.3281 52.5381H37.1875ZM37.5859 50.417L37.418 51.3662H34.918L35.0859 50.417H37.5859ZM41 50.792L41.668 46.8506H42.7812L42.1133 50.7842C42.0664 51.1097 41.9648 51.4144 41.8086 51.6982C41.6549 51.9821 41.4479 52.2087 41.1875 52.3779C40.9271 52.5446 40.6185 52.6253 40.2617 52.6201C39.918 52.6123 39.6406 52.5277 39.4297 52.3662C39.2188 52.2048 39.069 51.9925 38.9805 51.7295C38.8919 51.4639 38.8581 51.1709 38.8789 50.8506L40 50.8584C39.9922 50.9574 39.9896 51.0693 39.9922 51.1943C39.9974 51.3193 40.026 51.43 40.0781 51.5264C40.1328 51.6201 40.2292 51.6696 40.3672 51.6748C40.5182 51.6774 40.6367 51.6292 40.7227 51.5303C40.8086 51.4313 40.8724 51.3115 40.9141 51.1709C40.9557 51.0303 40.9844 50.904 41 50.792ZM44.8242 46.8506L43.8359 52.5381H42.7227L43.7109 46.8506H44.8242ZM50.2539 49.1553L50.0859 50.1006H47.8164L47.9805 49.1553H50.2539ZM48.7031 46.8506L47.7188 52.5381H46.6016L47.5859 46.8506H48.7031ZM51.457 46.8506L50.4688 52.5381H49.3633L50.3516 46.8506H51.457ZM55.8047 49.2529L55.668 50.1982C55.6185 50.516 55.5352 50.8219 55.418 51.1162C55.3008 51.4105 55.1471 51.6722 54.957 51.9014C54.7695 52.1279 54.5404 52.3063 54.2695 52.4365C53.9987 52.5641 53.6836 52.624 53.3242 52.6162C52.9857 52.6084 52.7018 52.5355 52.4727 52.3975C52.2461 52.2594 52.069 52.0758 51.9414 51.8467C51.8164 51.6175 51.7344 51.361 51.6953 51.0771C51.6562 50.7907 51.6549 50.499 51.6914 50.2021L51.832 49.2568C51.8815 48.9339 51.9635 48.624 52.0781 48.3271C52.1927 48.0277 52.3451 47.7594 52.5352 47.5225C52.7279 47.2855 52.9609 47.0993 53.2344 46.9639C53.5078 46.8258 53.8255 46.762 54.1875 46.7725C54.5339 46.7803 54.8203 46.8571 55.0469 47.0029C55.2734 47.1488 55.4492 47.3415 55.5742 47.5811C55.6992 47.818 55.7786 48.0824 55.8125 48.374C55.8464 48.6631 55.8438 48.9561 55.8047 49.2529ZM54.5547 50.2021L54.6953 49.2373C54.7109 49.1045 54.724 48.9535 54.7344 48.7842C54.7448 48.6149 54.7357 48.4508 54.707 48.292C54.6784 48.1331 54.6185 48.0003 54.5273 47.8936C54.4362 47.7868 54.2943 47.7295 54.1016 47.7217C53.8958 47.7113 53.7227 47.7529 53.582 47.8467C53.444 47.9404 53.332 48.0667 53.2461 48.2256C53.1602 48.3818 53.0938 48.5498 53.0469 48.7295C53.0026 48.9092 52.9674 49.0811 52.9414 49.2451L52.8086 50.2061C52.7904 50.3415 52.7773 50.4912 52.7695 50.6553C52.7617 50.8193 52.7734 50.9782 52.8047 51.1318C52.8385 51.2829 52.901 51.4092 52.9922 51.5107C53.0859 51.6097 53.2279 51.6631 53.418 51.6709C53.6185 51.6813 53.7865 51.641 53.9219 51.5498C54.0573 51.4587 54.168 51.3402 54.2539 51.1943C54.3424 51.0459 54.4089 50.8844 54.4531 50.71C54.5 50.5329 54.5339 50.3636 54.5547 50.2021ZM57.5586 46.8506H58.4727L58.8086 50.9521L60.5664 46.8506H61.5391L58.9453 52.5381H58.1836L57.5586 46.8506ZM57.0391 46.8506H57.9766L57.4297 51.0381L57.168 52.5381H56.0547L57.0391 46.8506ZM61.0898 46.8506H62.0312L61.043 52.5381H59.9258L60.2109 50.9365L61.0898 46.8506ZM65.2734 51.5928L65.1055 52.5381H62.707L62.8672 51.5928H65.2734ZM64.0391 46.8506L63.0547 52.5381H61.9375L62.9219 46.8506H64.0391ZM65.3789 49.1553L65.2148 50.0732H63.1328L63.293 49.1553H65.3789ZM66.082 46.8506L65.918 47.7998H63.5234L63.6914 46.8506H66.082ZM68.3555 51.0107C68.3711 50.8936 68.3672 50.792 68.3438 50.7061C68.3203 50.6201 68.2799 50.5446 68.2227 50.4795C68.168 50.4118 68.1003 50.3519 68.0195 50.2998C67.9414 50.2451 67.8516 50.1943 67.75 50.1475C67.5651 50.0589 67.3906 49.96 67.2266 49.8506C67.0651 49.7386 66.9219 49.6136 66.7969 49.4756C66.6745 49.335 66.582 49.1761 66.5195 48.999C66.457 48.8219 66.4336 48.6214 66.4492 48.3975C66.4674 48.1423 66.5326 47.9131 66.6445 47.71C66.7565 47.5068 66.9023 47.335 67.082 47.1943C67.2617 47.0511 67.4635 46.9443 67.6875 46.874C67.9141 46.8011 68.1484 46.7673 68.3906 46.7725C68.7344 46.7803 69.0208 46.8623 69.25 47.0186C69.4818 47.1748 69.6536 47.3844 69.7656 47.6475C69.8802 47.9105 69.931 48.2048 69.918 48.5303L68.8047 48.5264C68.8151 48.3988 68.8086 48.2725 68.7852 48.1475C68.7643 48.0199 68.7161 47.9157 68.6406 47.835C68.5651 47.7516 68.4466 47.7087 68.2852 47.7061C68.1497 47.7035 68.0299 47.7334 67.9258 47.7959C67.8216 47.8584 67.737 47.9417 67.6719 48.0459C67.6068 48.1501 67.5651 48.2673 67.5469 48.3975C67.5339 48.499 67.5443 48.5902 67.5781 48.6709C67.6146 48.7516 67.6641 48.8245 67.7266 48.8896C67.7917 48.9521 67.8646 49.0094 67.9453 49.0615C68.026 49.111 68.1068 49.154 68.1875 49.1904C68.3854 49.2868 68.5664 49.391 68.7305 49.5029C68.8945 49.6123 69.0339 49.7386 69.1484 49.8818C69.2656 50.0225 69.3503 50.1852 69.4023 50.3701C69.457 50.555 69.4766 50.766 69.4609 51.0029C69.4401 51.266 69.3763 51.4977 69.2695 51.6982C69.1654 51.8988 69.0273 52.0693 68.8555 52.21C68.6836 52.348 68.487 52.4521 68.2656 52.5225C68.0469 52.5928 67.8099 52.6253 67.5547 52.6201C67.2839 52.6123 67.0417 52.5615 66.8281 52.4678C66.6146 52.3714 66.4349 52.2386 66.2891 52.0693C66.1458 51.9001 66.0391 51.7021 65.9688 51.4756C65.8984 51.249 65.8698 51.0042 65.8828 50.7412L67 50.7451C66.9922 50.8675 66.9935 50.986 67.0039 51.1006C67.0169 51.2152 67.0456 51.3167 67.0898 51.4053C67.1367 51.4912 67.2044 51.5602 67.293 51.6123C67.3815 51.6618 67.4987 51.6865 67.6445 51.6865C67.7826 51.6865 67.901 51.6579 68 51.6006C68.099 51.5433 68.1784 51.4639 68.2383 51.3623C68.2982 51.2607 68.3372 51.1436 68.3555 51.0107Z" fill="white"/>
</g>
</g>
<defs>
<clipPath id="clip0_1803_325">
<rect width="77" height="53" fill="white"/>
</clipPath>
</defs>
</svg>
